{"glyphs":{":":{"x_min":0,"x_max":550,"ha":550,"o":"m 275 501 q 293 501 310 494 q 326 487 337 475 q 349 463 356 447 q 363 431 363 413 q 363 395 356 378 q 349 362 337 351 q 326 339 310 332 q 293 325 275 325 q 256 325 240 332 q 225 339 213 351 q 201 362 194 378 q 187 395 187 413 q 187 431 194 447 q 201 463 213 475 q 225 487 240 494 q 256 501 275 501 z m 275 165 q 293 165 310 158 q 326 151 337 139 q 349 127 356 111 q 363 95 363 77 q 363 59 356 42 q 349 26 337 14 q 326 2 310 -4 q 293 -11 275 -11 q 256 -11 240 -4 q 225 2 213 14 q 201 26 194 42 q 187 59 187 77 q 187 95 194 111 q 201 127 213 139 q 225 151 240 158 q 256 165 275 165 z"},"$":{"x_min":0,"x_max":550,"ha":550,"o":"m 278 103 q 304 106 323 113 q 341 120 353 130 q 364 140 370 152 q 375 164 375 178 q 375 206 357 223 q 339 240 300 253 z m 319 377 q 352 365 385 351 q 417 337 444 317 q 471 296 487 267 q 504 238 504 197 q 504 149 486 114 q 467 79 435 54 q 403 30 359 17 q 315 4 263 1 l 245 -121 l 159 -121 l 177 2 q 108 6 44 24 l 44 138 q 79 127 117 117 q 155 108 192 104 l 218 281 q 186 292 155 305 q 124 319 100 340 q 75 360 60 389 q 45 418 45 459 q 45 493 58 524 q 71 555 99 579 q 126 603 169 619 q 212 634 271 637 l 286 737 l 372 737 l 357 633 q 383 630 408 626 q 433 623 456 617 l 456 512 q 430 521 400 527 q 371 533 342 536 z m 256 537 q 209 532 191 514 q 172 497 172 469 q 172 447 188 432 q 205 417 237 405 z"},"?":{"x_min":0,"x_max":550,"ha":550,"o":"m 471 478 q 471 437 459 405 q 446 372 423 348 q 400 325 367 310 q 334 295 294 290 l 289 198 l 187 198 l 178 382 l 249 382 q 273 382 290 389 q 308 396 319 407 q 330 419 335 434 q 340 450 340 467 q 340 490 330 510 q 320 531 299 546 q 277 562 245 570 q 212 579 166 579 l 137 579 l 137 690 l 171 690 q 246 690 302 672 q 358 654 396 625 q 434 595 452 557 q 471 519 471 478 z m 319 67 q 319 51 312 37 q 306 22 295 12 q 285 1 270 -5 q 255 -11 239 -11 q 222 -11 208 -5 q 193 1 183 12 q 172 22 166 37 q 159 51 159 67 q 159 83 166 97 q 172 111 183 122 q 193 133 208 139 q 222 145 239 145 q 255 145 270 139 q 285 133 295 122 q 306 111 312 97 q 319 83 319 67 z"},"<":{"x_min":0,"x_max":550,"ha":550,"o":"m 379 -11 l 50 266 l 379 543 l 455 466 l 213 267 l 455 66 z"},"'":{"x_min":0,"x_max":550,"ha":550,"o":"m 326 447 l 224 447 l 208 690 l 342 690 z"},"=":{"x_min":0,"x_max":550,"ha":550,"o":"m 65 315 l 65 410 l 485 410 l 485 315 z m 65 123 l 65 218 l 485 218 l 485 123 z"},"a":{"x_min":0,"x_max":550,"ha":550,"o":"m 379 0 l 376 65 q 360 48 343 34 q 326 21 306 10 q 285 0 261 -6 q 237 -11 208 -11 q 170 -11 141 0 q 112 11 93 31 q 73 51 63 80 q 53 108 53 142 q 53 177 68 207 q 83 237 114 258 q 144 280 190 292 q 235 304 297 304 l 362 304 l 362 334 q 362 353 356 368 q 351 384 339 395 q 327 405 308 411 q 289 417 261 417 q 217 417 175 407 q 132 397 92 379 l 92 474 q 127 488 174 498 q 221 507 271 507 q 326 507 366 496 q 405 486 431 465 q 457 444 469 412 q 481 381 481 339 l 481 0 z m 362 219 l 289 219 q 259 219 238 213 q 217 208 204 197 q 190 187 184 174 q 178 160 178 145 q 178 115 198 99 q 217 83 251 83 q 276 83 303 101 q 330 119 362 153 z"},"L":{"x_min":0,"x_max":550,"ha":550,"o":"m 96 0 l 96 638 l 218 638 l 218 103 l 488 103 l 488 0 z"},"3":{"x_min":0,"x_max":550,"ha":550,"o":"m 498 195 q 498 147 480 110 q 463 72 427 45 q 390 19 335 4 q 280 -10 205 -10 q 188 -10 170 -9 q 152 -8 134 -7 q 116 -6 99 -4 q 82 -2 68 0 l 68 104 q 99 98 137 94 q 175 90 217 90 q 257 90 287 97 q 316 104 335 117 q 354 130 363 149 q 372 168 372 192 q 372 213 363 230 q 354 247 334 259 q 315 271 286 278 q 256 284 216 284 l 145 284 l 145 375 l 210 375 q 248 375 273 383 q 298 390 313 403 q 328 416 334 433 q 341 450 341 469 q 341 508 315 529 q 290 549 237 549 q 199 549 162 542 q 125 534 85 522 l 85 622 q 107 629 127 634 q 147 639 167 643 q 187 646 208 647 q 228 649 250 649 q 303 649 343 638 q 382 626 409 606 q 437 585 450 555 q 464 525 464 489 q 464 431 437 395 q 411 359 363 340 q 394 335 418 323 q 443 311 461 292 q 479 273 489 249 q 498 225 498 195 z"},";":{"x_min":0,"x_max":550,"ha":550,"o":"m 109 -94 q 138 -95 164 -91 q 189 -86 208 -77 q 227 -67 237 -53 q 248 -38 248 -18 q 248 -4 244 6 q 240 16 233 24 q 227 32 220 40 q 213 47 207 56 q 200 64 196 75 q 192 86 192 102 q 192 117 197 132 q 203 146 213 157 q 223 168 238 175 q 253 182 272 182 q 296 182 315 171 q 334 160 347 141 q 360 123 367 98 q 374 74 374 48 q 374 2 357 -38 q 341 -78 308 -107 q 275 -137 225 -155 q 175 -172 109 -172 z m 275 501 q 293 501 310 494 q 326 487 337 475 q 349 463 356 447 q 363 431 363 413 q 363 395 356 378 q 349 362 337 351 q 326 339 310 332 q 293 325 275 325 q 256 325 240 332 q 225 339 213 351 q 201 362 194 378 q 187 395 187 413 q 187 431 194 447 q 201 463 213 475 q 225 487 240 494 q 256 501 275 501 z"},"J":{"x_min":0,"x_max":550,"ha":550,"o":"m 442 191 q 442 146 428 109 q 414 72 386 45 q 359 19 318 5 q 278 -10 224 -10 q 185 -10 148 0 q 111 9 84 23 l 84 139 q 96 129 113 120 q 129 111 147 105 q 166 98 186 94 q 205 91 224 91 q 240 91 258 97 q 275 103 289 116 q 302 130 311 152 q 320 174 320 207 l 320 539 l 89 539 l 89 638 l 442 638 z"},"V":{"x_min":0,"x_max":550,"ha":550,"o":"m 354 0 l 195 0 l 0 638 l 136 638 l 244 254 l 279 128 l 315 261 l 422 638 l 550 638 z"},"\"":{"x_min":0,"x_max":550,"ha":550,"o":"m 223 447 l 127 447 l 111 690 l 239 690 z m 423 447 l 327 447 l 311 690 l 439 690 z"},"7":{"x_min":0,"x_max":550,"ha":550,"o":"m 239 0 l 104 0 l 358 523 l 52 523 l 52 638 l 495 638 l 495 534 z"},"S":{"x_min":0,"x_max":550,"ha":550,"o":"m 498 193 q 498 141 479 102 q 459 63 425 38 q 390 13 342 1 q 294 -11 238 -11 q 188 -11 141 -5 q 94 0 48 14 l 48 133 q 70 125 95 118 q 119 111 144 106 q 168 101 193 98 q 217 95 240 95 q 274 95 298 101 q 322 107 337 117 q 353 127 359 142 q 366 156 366 173 q 366 196 353 212 q 339 228 317 240 q 295 252 267 262 q 239 272 210 283 q 181 294 153 309 q 125 323 103 344 q 81 365 68 394 q 54 423 54 464 q 54 501 68 535 q 82 569 111 594 q 140 619 186 634 q 232 649 297 649 q 316 649 337 647 q 357 646 378 643 q 398 640 417 636 q 436 633 451 629 l 451 519 q 436 525 417 530 q 398 535 379 538 q 359 542 339 544 q 319 546 301 546 q 269 546 247 541 q 225 536 211 527 q 197 518 190 504 q 184 491 184 475 q 184 455 198 441 q 211 426 233 415 q 255 403 283 393 q 312 383 341 372 q 371 360 399 346 q 427 331 449 310 q 471 289 485 260 q 498 232 498 193 z"},"}":{"x_min":0,"x_max":550,"ha":550,"o":"m 147 712 q 249 712 298 663 q 348 615 348 509 l 348 427 q 348 376 370 351 q 393 326 445 326 l 476 326 l 476 234 l 445 234 q 418 234 400 228 q 381 223 370 211 q 358 199 353 181 q 348 163 348 137 l 348 9 q 348 -42 337 -79 q 325 -117 301 -143 q 276 -168 238 -181 q 200 -194 147 -194 l 106 -194 l 106 -102 l 137 -102 q 161 -102 179 -97 q 198 -91 212 -78 q 226 -65 233 -45 q 240 -24 240 7 l 240 134 q 240 170 246 197 q 252 223 265 240 q 277 257 297 267 q 316 276 343 280 q 291 286 265 321 q 240 356 240 428 l 240 510 q 240 542 233 563 q 226 584 212 597 q 198 609 179 615 q 161 620 137 620 l 106 620 l 106 712 z"},"Z":{"x_min":0,"x_max":550,"ha":550,"o":"m 51 0 l 51 91 l 343 529 l 60 529 l 60 638 l 495 638 l 495 541 l 201 109 l 499 109 l 499 0 z"},"x":{"x_min":0,"x_max":550,"ha":550,"o":"m 387 0 l 274 167 l 160 0 l 16 0 l 202 250 l 26 496 l 171 496 l 282 333 l 392 496 l 526 496 l 355 251 l 535 0 z"},")":{"x_min":0,"x_max":550,"ha":550,"o":"m 182 728 q 302 628 360 513 q 419 397 419 264 q 419 190 401 124 q 384 58 352 0 q 321 -59 277 -110 q 233 -161 180 -205 l 112 -137 q 208 -52 255 48 q 303 147 303 257 q 303 367 255 470 q 208 572 112 657 z"},"&":{"x_min":0,"x_max":550,"ha":550,"o":"m 510 333 q 510 271 497 219 q 484 167 460 126 l 564 0 l 423 0 l 388 42 q 355 16 314 2 q 274 -11 228 -11 q 177 -11 138 2 q 98 15 71 39 q 43 62 29 96 q 15 130 15 172 q 15 207 24 235 q 34 264 49 286 q 65 309 85 327 q 106 345 129 360 l 119 373 q 92 407 77 442 q 62 478 62 511 q 62 545 74 577 q 86 608 110 633 q 134 657 168 671 q 203 686 248 686 q 291 686 324 674 q 357 662 380 642 q 403 622 415 594 q 427 567 427 536 q 427 498 414 469 q 401 441 381 419 q 360 397 333 381 q 307 364 279 348 l 386 216 q 393 241 396 270 q 400 299 399 333 z m 133 182 q 133 161 140 143 q 147 125 161 112 q 174 99 193 92 q 212 85 236 85 q 262 85 285 93 q 308 101 327 117 l 187 289 q 163 269 148 243 q 133 218 133 182 z m 314 526 q 314 539 309 551 q 305 563 296 573 q 287 583 274 588 q 262 594 245 594 q 229 594 215 588 q 202 582 193 572 q 184 562 179 548 q 175 534 175 519 q 175 493 188 469 q 200 445 222 418 l 223 416 q 242 427 258 439 q 275 450 287 463 q 300 477 307 492 q 314 507 314 526 z"},"_":{"x_min":0,"x_max":550,"ha":550,"o":"m 0 -200 l 0 -106 l 550 -106 l 550 -200 z"},"v":{"x_min":0,"x_max":550,"ha":550,"o":"m 345 0 l 208 0 l 11 496 l 144 496 l 247 215 l 278 124 l 308 211 l 412 496 l 540 496 z"},"O":{"x_min":0,"x_max":550,"ha":550,"o":"m 532 322 q 532 235 511 172 q 491 109 456 68 q 420 28 373 8 q 325 -11 271 -11 q 145 -11 82 73 q 18 156 18 316 q 18 403 38 466 q 59 529 94 569 q 129 610 177 629 q 225 649 279 649 q 405 649 468 565 q 532 482 532 322 z m 405 316 q 405 429 375 485 q 344 541 275 541 q 240 541 216 526 q 191 512 176 484 q 160 456 152 415 q 145 375 145 322 q 145 208 176 153 q 206 97 275 97 q 310 97 334 112 q 359 126 375 154 q 390 182 397 222 q 405 263 405 316 z"},"(":{"x_min":0,"x_max":550,"ha":550,"o":"m 370 -205 q 251 -104 192 11 q 133 126 133 259 q 133 333 150 399 q 168 465 200 523 q 232 582 276 633 q 320 684 373 728 l 441 660 q 346 575 298 476 q 250 376 250 267 q 250 156 298 54 q 346 -48 441 -133 z"},"C":{"x_min":0,"x_max":550,"ha":550,"o":"m 490 25 q 448 8 408 0 q 368 -9 325 -9 q 256 -9 203 11 q 150 32 114 72 q 78 112 59 171 q 40 230 40 309 q 40 390 61 452 q 81 515 119 558 q 157 602 212 624 q 266 647 334 647 q 356 647 375 646 q 395 645 413 642 q 432 640 451 635 q 470 631 490 624 l 490 505 q 449 524 411 533 q 374 541 343 541 q 297 541 265 525 q 233 508 212 479 q 191 449 182 408 q 172 368 172 319 q 172 267 182 226 q 192 186 213 157 q 234 129 267 114 q 299 99 344 99 q 360 99 379 102 q 398 105 417 111 q 437 116 455 123 q 474 130 490 137 z"},"W":{"x_min":0,"x_max":550,"ha":550,"o":"m 498 0 l 357 0 l 294 197 l 271 277 l 249 195 l 187 0 l 52 0 l 16 638 l 122 638 l 137 229 l 141 117 l 170 217 l 240 444 l 316 444 l 390 203 l 414 118 l 416 218 l 432 638 l 534 638 z"},"A":{"x_min":0,"x_max":550,"ha":550,"o":"m 415 0 l 380 126 l 157 126 l 121 0 l 2 0 l 191 638 l 359 638 l 548 0 z m 270 521 l 186 224 l 353 224 z"},"f":{"x_min":0,"x_max":550,"ha":550,"o":"m 513 589 q 492 596 462 600 q 433 605 402 605 q 381 605 363 599 q 345 594 332 582 q 318 569 311 551 q 303 532 303 505 l 303 425 l 498 425 l 498 332 l 303 332 l 303 0 l 183 0 l 183 332 l 39 332 l 39 425 l 183 425 l 183 500 q 183 553 198 591 q 214 628 242 653 q 270 677 310 688 q 349 699 398 699 q 430 699 459 695 q 488 691 513 685 z m 0 496 z"},"Q":{"x_min":0,"x_max":550,"ha":550,"o":"m 213 -5 q 115 13 66 93 q 18 173 18 313 q 18 399 38 463 q 59 526 94 567 q 129 608 177 629 q 225 649 279 649 q 405 649 468 566 q 532 483 532 326 q 532 251 517 194 q 501 136 474 95 q 446 54 409 29 q 371 4 327 -5 q 331 -28 340 -43 q 349 -59 362 -67 q 374 -76 389 -80 q 403 -83 419 -83 q 440 -83 461 -74 q 481 -65 498 -50 l 553 -132 q 522 -158 486 -171 q 450 -185 413 -185 q 367 -185 331 -174 q 294 -164 269 -141 q 243 -119 229 -85 q 215 -51 213 -5 z m 405 316 q 405 429 375 485 q 345 541 277 541 q 242 541 217 526 q 192 512 176 484 q 160 456 153 415 q 145 374 145 322 q 145 209 176 153 q 206 97 275 97 q 310 97 334 112 q 359 126 375 154 q 390 182 397 222 q 405 263 405 316 z"},"w":{"x_min":0,"x_max":550,"ha":550,"o":"m 475 0 l 343 0 l 290 157 l 274 212 l 258 156 l 207 0 l 74 0 l 4 496 l 117 496 l 153 216 l 161 139 l 181 208 l 231 359 l 322 359 l 375 209 l 398 138 l 407 217 l 437 496 l 545 496 z"},"-":{"x_min":0,"x_max":550,"ha":550,"o":"m 123 213 l 123 319 l 427 319 l 427 213 z"},"E":{"x_min":0,"x_max":550,"ha":550,"o":"m 90 0 l 90 638 l 474 638 l 474 537 l 212 537 l 212 378 l 462 378 l 462 279 l 212 279 l 212 102 l 474 102 l 474 0 z"},"s":{"x_min":0,"x_max":550,"ha":550,"o":"m 477 146 q 477 104 458 73 q 439 43 408 25 q 377 6 338 -3 q 299 -11 258 -11 q 203 -11 159 -6 q 115 -1 76 9 l 76 116 q 122 97 168 89 q 213 80 254 80 q 301 80 324 95 q 347 110 347 134 q 347 145 342 154 q 337 164 324 172 q 311 181 286 190 q 262 199 222 210 q 186 220 158 233 q 130 246 112 264 q 94 281 85 304 q 76 328 76 359 q 76 389 90 416 q 104 443 131 463 q 158 483 198 495 q 239 507 293 507 q 340 507 376 502 q 412 497 440 491 l 440 394 q 397 408 360 413 q 323 419 286 419 q 250 419 227 406 q 205 393 205 369 q 205 358 209 349 q 214 340 227 332 q 240 324 263 315 q 286 306 324 295 q 367 283 396 269 q 426 255 444 237 q 461 220 469 197 q 477 175 477 146 z"},">":{"x_min":0,"x_max":550,"ha":550,"o":"m 171 543 l 500 266 l 171 -11 l 95 66 l 337 265 l 95 466 z"},"l":{"x_min":0,"x_max":550,"ha":550,"o":"m 228 597 l 88 597 l 88 690 l 350 690 l 350 93 l 493 93 l 493 0 l 71 0 l 71 93 l 228 93 z"},"8":{"x_min":0,"x_max":550,"ha":550,"o":"m 381 338 q 405 325 427 309 q 448 293 465 272 q 481 251 490 225 q 500 199 500 166 q 500 123 482 89 q 465 56 434 34 q 403 11 361 0 q 319 -11 271 -11 q 217 -11 176 0 q 135 12 107 33 q 79 54 64 83 q 50 113 50 150 q 50 183 59 208 q 69 234 85 255 q 102 276 124 292 q 146 309 170 323 q 148 336 129 351 q 109 366 95 385 q 80 404 72 428 q 63 451 63 481 q 63 516 76 546 q 90 577 116 600 q 143 623 183 636 q 224 649 278 649 q 328 649 367 638 q 406 628 432 608 q 459 589 473 562 q 487 535 487 502 q 487 472 479 447 q 470 423 456 403 q 442 383 422 367 q 403 352 381 338 z m 287 384 q 305 394 320 405 q 335 416 347 429 q 358 442 365 458 q 372 473 372 492 q 372 524 347 541 q 322 557 275 557 q 229 557 204 540 q 179 523 179 489 q 179 470 188 456 q 196 441 210 428 q 225 416 245 405 q 265 395 287 384 z m 262 276 q 243 266 226 254 q 209 242 197 228 q 185 214 177 197 q 170 180 170 159 q 170 122 199 103 q 228 83 275 83 q 296 83 315 87 q 334 92 349 101 q 363 110 372 125 q 380 139 380 159 q 380 180 371 196 q 361 212 345 226 q 329 240 308 252 q 286 264 262 276 z"},"\\":{"x_min":0,"x_max":550,"ha":550,"o":"m 174 690 l 515 -105 l 399 -105 l 58 690 z"},"e":{"x_min":0,"x_max":550,"ha":550,"o":"m 500 286 q 500 274 499 254 q 499 235 497 218 l 171 218 q 171 185 181 160 q 191 135 209 118 q 228 102 253 93 q 279 84 310 84 q 346 84 387 90 q 429 95 473 108 l 473 13 q 454 8 432 3 q 409 -1 386 -4 q 362 -8 338 -10 q 314 -11 292 -11 q 235 -11 190 5 q 146 21 114 52 q 83 84 66 130 q 50 177 50 238 q 50 298 66 348 q 83 397 113 433 q 144 468 187 488 q 230 507 283 507 q 336 507 376 490 q 417 474 444 445 q 472 416 486 375 q 500 334 500 286 z m 379 303 q 379 333 372 354 q 364 376 350 390 q 337 404 319 411 q 301 418 281 418 q 236 418 207 388 q 178 358 173 303 z"},"b":{"x_min":0,"x_max":550,"ha":550,"o":"m 514 257 q 514 188 495 139 q 476 89 441 56 q 407 23 360 7 q 313 -9 258 -9 q 204 -9 157 -1 q 110 7 68 21 l 68 690 l 187 690 l 187 528 l 182 430 q 209 465 245 486 q 281 507 331 507 q 375 507 409 489 q 443 472 467 439 q 490 407 502 361 q 514 314 514 257 z m 389 252 q 389 293 383 322 q 377 351 366 369 q 355 388 340 396 q 324 405 303 405 q 273 405 245 380 q 218 356 187 314 l 187 97 q 201 92 222 88 q 243 85 264 85 q 292 85 316 97 q 339 108 355 130 q 372 151 380 182 q 389 213 389 252 z"},"%":{"x_min":0,"x_max":550,"ha":550,"o":"m 97 0 l 0 0 l 453 690 l 550 690 z m 282 552 q 282 519 273 491 q 264 464 246 444 q 229 423 204 412 q 179 401 147 401 q 85 401 51 438 q 16 475 16 548 q 16 581 25 608 q 34 636 52 656 q 69 676 94 688 q 119 699 151 699 q 213 699 248 662 q 282 625 282 552 z m 195 550 q 195 588 184 607 q 172 625 149 625 q 103 625 103 550 q 103 512 115 493 q 126 475 149 475 q 195 475 195 550 z m 534 142 q 534 109 525 82 q 516 54 498 34 q 481 14 456 2 q 431 -9 399 -9 q 337 -9 302 28 q 268 65 268 138 q 268 171 277 199 q 286 227 303 247 q 321 267 346 278 q 371 290 403 290 q 465 290 500 252 q 534 215 534 142 z m 447 140 q 447 179 436 197 q 424 215 401 215 q 355 215 355 140 q 355 102 367 83 q 378 65 401 65 q 447 65 447 140 z"},"m":{"x_min":0,"x_max":550,"ha":550,"o":"m 418 0 l 418 338 q 418 356 417 370 q 416 384 413 394 q 410 403 405 407 q 399 412 389 412 q 374 412 359 392 q 345 371 326 322 l 326 0 l 224 0 l 224 338 q 224 356 223 370 q 222 384 219 394 q 216 403 210 407 q 205 412 195 412 q 182 412 167 392 q 151 371 132 322 l 132 0 l 29 0 l 29 496 l 117 496 l 119 424 q 130 446 141 461 q 151 477 164 487 q 176 497 190 501 q 204 506 221 506 q 263 506 284 484 q 306 462 309 424 q 321 446 332 461 q 344 477 356 487 q 369 497 383 501 q 397 506 415 506 q 469 506 495 468 q 521 430 521 356 l 521 0 z"},"#":{"x_min":0,"x_max":550,"ha":550,"o":"m 410 166 l 393 0 l 297 0 l 314 166 l 201 166 l 185 0 l 89 0 l 106 166 l 20 166 l 20 255 l 115 255 l 129 396 l 46 396 l 46 485 l 138 485 l 153 638 l 249 638 l 233 485 l 346 485 l 362 638 l 458 638 l 442 485 l 529 485 l 529 396 l 433 396 l 419 255 l 503 255 l 503 166 z m 337 396 l 225 396 l 210 255 l 323 255 z"},",":{"x_min":0,"x_max":550,"ha":550,"o":"m 103 -94 q 132 -95 158 -91 q 183 -86 202 -77 q 221 -67 231 -53 q 242 -38 242 -18 q 242 -4 238 6 q 234 16 228 24 q 221 32 214 40 q 207 47 201 56 q 194 64 190 75 q 186 86 186 102 q 186 117 191 132 q 197 146 207 157 q 217 168 232 175 q 247 182 266 182 q 290 182 309 171 q 328 160 341 141 q 354 123 361 98 q 368 74 368 48 q 368 2 352 -38 q 335 -78 302 -107 q 269 -137 219 -155 q 169 -172 103 -172 z"},"n":{"x_min":0,"x_max":550,"ha":550,"o":"m 364 0 l 364 323 q 364 405 303 405 q 273 405 245 380 q 218 356 187 314 l 187 0 l 68 0 l 68 496 l 171 496 l 174 423 q 189 442 205 458 q 222 473 241 484 q 260 495 282 501 q 304 507 331 507 q 369 507 397 494 q 426 482 445 459 q 464 437 473 405 q 483 373 483 333 l 483 0 z"},"h":{"x_min":0,"x_max":550,"ha":550,"o":"m 364 0 l 364 323 q 364 405 303 405 q 273 405 245 380 q 218 356 187 314 l 187 0 l 68 0 l 68 690 l 187 690 l 187 520 l 181 430 q 196 448 212 463 q 228 477 246 487 q 264 497 285 502 q 306 507 331 507 q 369 507 397 494 q 426 482 445 459 q 464 437 473 405 q 483 373 483 333 l 483 0 z"},"z":{"x_min":0,"x_max":550,"ha":550,"o":"m 73 0 l 73 83 l 316 394 l 79 394 l 79 496 l 473 496 l 473 412 l 236 105 l 477 105 l 477 0 z"},"B":{"x_min":0,"x_max":550,"ha":550,"o":"m 63 0 l 63 638 l 269 638 q 378 638 432 600 q 487 562 487 485 q 487 461 481 438 q 476 416 464 396 q 452 377 435 363 q 417 348 393 340 q 417 336 439 324 q 460 313 477 295 q 493 276 503 251 q 512 227 512 196 q 512 98 447 49 q 381 0 258 0 z m 362 464 q 362 482 356 497 q 350 511 337 521 q 324 532 304 537 q 284 543 255 543 l 182 543 l 182 374 l 255 374 q 284 374 304 381 q 325 388 338 401 q 351 413 356 429 q 362 445 362 464 z m 266 98 q 295 98 317 105 q 338 113 353 126 q 368 139 375 156 q 383 174 383 194 q 383 235 352 259 q 321 282 257 282 l 182 282 l 182 98 z"},"K":{"x_min":0,"x_max":550,"ha":550,"o":"m 377 0 l 185 309 l 185 0 l 63 0 l 63 638 l 185 638 l 185 348 l 376 638 l 521 638 l 304 334 l 532 0 z"},"R":{"x_min":0,"x_max":550,"ha":550,"o":"m 385 0 l 295 205 q 282 234 260 249 q 237 264 206 264 l 183 264 l 183 0 l 63 0 l 63 638 l 249 638 q 302 638 345 629 q 388 620 418 599 q 448 578 465 544 q 481 511 481 462 q 481 427 471 399 q 460 372 442 352 q 423 333 398 320 q 372 308 342 303 q 365 298 385 277 q 404 255 424 214 l 526 0 z m 355 450 q 355 497 325 518 q 295 538 236 538 l 183 538 l 183 358 l 232 358 q 260 358 282 364 q 305 370 321 381 q 337 393 346 410 q 355 428 355 450 z"},"T":{"x_min":0,"x_max":550,"ha":550,"o":"m 336 538 l 336 0 l 213 0 l 213 538 l 39 538 l 39 638 l 511 638 l 511 538 z"},"P":{"x_min":0,"x_max":550,"ha":550,"o":"m 509 435 q 509 385 492 343 q 476 301 443 270 q 410 239 361 222 q 312 205 248 205 l 187 205 l 187 0 l 66 0 l 66 638 l 253 638 q 315 638 363 625 q 410 611 443 585 q 475 560 492 522 q 509 484 509 435 z m 383 427 q 383 452 375 473 q 367 494 350 508 q 334 523 309 531 q 284 539 250 539 l 187 539 l 187 305 l 254 305 q 285 305 309 313 q 333 322 349 338 q 366 354 374 376 q 383 399 383 427 z"},"|":{"x_min":0,"x_max":550,"ha":550,"o":"m 220 -200 l 220 800 l 330 800 l 330 -200 z"},"t":{"x_min":0,"x_max":550,"ha":550,"o":"m 477 5 q 445 -2 412 -7 q 379 -11 350 -11 q 301 -11 266 -1 q 230 9 207 30 q 184 51 173 84 q 162 116 162 161 l 162 403 l 29 403 l 29 496 l 162 496 l 162 623 l 284 655 l 284 496 l 477 496 l 477 403 l 284 403 l 284 170 q 284 127 304 106 q 323 84 369 84 q 398 84 426 89 q 454 94 477 100 z"},"M":{"x_min":0,"x_max":550,"ha":550,"o":"m 422 0 l 410 361 l 406 505 l 375 407 l 304 190 l 229 190 l 165 407 l 138 505 l 135 364 l 124 0 l 22 0 l 53 638 l 189 638 l 245 457 l 272 355 l 299 451 l 358 638 l 496 638 l 528 0 z"},"g":{"x_min":0,"x_max":550,"ha":550,"o":"m 440 409 q 454 392 459 373 q 465 354 465 335 q 465 293 450 262 q 436 230 410 208 q 384 187 347 176 q 311 165 267 165 q 241 165 219 170 q 197 175 186 182 q 178 174 172 164 q 166 154 166 141 q 166 133 170 125 q 174 118 181 112 q 189 105 199 102 q 210 98 223 97 l 341 93 q 380 92 412 83 q 444 74 467 57 q 490 41 503 17 q 515 -7 515 -37 q 515 -72 500 -103 q 484 -133 452 -156 q 421 -179 374 -192 q 327 -205 265 -205 q 205 -205 162 -196 q 119 -186 91 -169 q 63 -152 50 -128 q 37 -104 37 -76 q 37 -59 42 -44 q 46 -30 55 -16 q 63 -3 77 10 q 90 22 108 35 q 84 49 72 70 q 59 92 59 116 q 59 133 63 147 q 68 162 75 175 q 82 188 91 200 q 101 212 111 224 q 93 242 81 268 q 69 293 69 332 q 69 374 84 406 q 99 438 125 461 q 151 483 188 494 q 224 506 267 506 q 289 506 309 504 q 330 501 346 496 l 518 496 l 518 409 z m 159 -66 q 159 -95 188 -108 q 217 -122 270 -122 q 304 -122 327 -116 q 350 -109 365 -99 q 379 -89 386 -75 q 392 -62 392 -47 q 392 -34 386 -25 q 380 -16 369 -10 q 358 -3 343 0 q 328 3 310 4 l 205 6 q 191 -4 182 -13 q 173 -21 168 -30 q 163 -39 161 -47 q 159 -56 159 -66 z m 179 332 q 179 292 202 269 q 226 246 267 246 q 289 246 305 253 q 322 261 333 273 q 343 285 349 301 q 354 317 354 335 q 354 376 331 400 q 308 423 266 423 q 244 423 228 416 q 211 408 201 396 q 190 383 185 367 q 179 350 179 332 z"},"j":{"x_min":0,"x_max":550,"ha":550,"o":"m 431 14 q 431 -42 415 -83 q 398 -124 368 -151 q 337 -178 295 -192 q 252 -205 199 -205 q 156 -205 119 -198 q 82 -190 58 -180 l 58 -71 q 72 -78 89 -85 q 106 -92 125 -98 q 144 -104 164 -107 q 183 -110 202 -110 q 256 -110 283 -79 q 310 -47 310 13 l 310 403 l 74 403 l 74 496 l 431 496 z m 441 632 q 441 616 435 602 q 429 587 419 577 q 408 566 394 560 q 379 554 363 554 q 346 554 332 560 q 318 566 307 577 q 297 587 291 602 q 285 616 285 632 q 285 648 291 662 q 297 676 307 687 q 318 698 332 704 q 346 710 363 710 q 379 710 394 704 q 408 698 419 687 q 429 676 435 662 q 441 648 441 632 z"},"i":{"x_min":0,"x_max":550,"ha":550,"o":"m 360 632 q 360 616 354 602 q 348 587 338 577 q 327 566 313 560 q 299 554 282 554 q 266 554 251 560 q 237 566 226 577 q 216 587 210 602 q 204 616 204 632 q 204 648 210 662 q 216 676 226 687 q 237 698 251 704 q 266 710 282 710 q 299 710 313 704 q 327 698 338 687 q 348 676 354 662 q 360 648 360 632 z m 228 403 l 88 403 l 88 496 l 350 496 l 350 93 l 493 93 l 493 0 l 71 0 l 71 93 l 228 93 z"},"y":{"x_min":0,"x_max":550,"ha":550,"o":"m 366 54 q 340 -10 312 -59 q 284 -107 250 -140 q 217 -172 176 -189 q 134 -205 83 -205 q 71 -205 56 -204 q 42 -203 27 -200 l 27 -99 q 33 -100 40 -101 q 48 -103 56 -103 q 64 -104 73 -104 q 82 -105 89 -105 q 109 -105 127 -97 q 145 -89 159 -75 q 174 -62 187 -42 q 199 -23 208 0 l 11 496 l 144 496 l 247 215 l 278 124 l 308 211 l 412 496 l 540 496 z"},"@":{"x_min":0,"x_max":550,"ha":550,"o":"m 394 200 q 393 187 392 171 q 391 155 391 144 q 391 125 395 119 q 398 113 405 113 q 423 113 437 169 q 450 225 450 337 q 450 405 443 457 q 435 509 418 544 q 402 579 375 597 q 349 615 312 615 q 283 615 256 599 q 229 583 206 554 q 182 525 163 484 q 144 444 130 395 q 116 346 108 290 q 100 233 100 173 q 100 101 111 46 q 123 -9 144 -45 q 165 -82 195 -101 q 225 -119 263 -119 q 282 -119 300 -117 q 318 -114 338 -109 q 357 -104 378 -94 q 399 -85 424 -71 l 424 -164 q 387 -184 344 -194 q 301 -205 256 -205 q 191 -205 144 -181 q 97 -158 66 -110 q 36 -63 21 8 q 5 78 5 172 q 4 246 15 313 q 25 381 44 440 q 63 499 91 547 q 119 595 153 629 q 188 664 229 682 q 270 701 316 701 q 374 701 417 678 q 459 654 488 609 q 517 563 531 497 q 545 431 545 345 q 544 260 535 199 q 526 139 507 99 q 488 60 459 42 q 430 23 391 23 q 333 23 318 79 q 304 52 281 37 q 259 23 232 23 q 210 23 193 32 q 175 41 163 61 q 150 80 144 111 q 137 141 137 184 q 137 215 140 248 q 142 281 148 312 q 155 343 166 370 q 176 398 193 418 q 210 439 234 451 q 257 463 289 463 q 306 463 322 459 q 337 456 347 451 l 420 467 z m 310 368 q 308 371 302 372 q 297 374 291 374 q 275 374 265 356 q 254 338 248 312 q 242 285 240 253 q 237 221 237 193 q 237 167 238 151 q 239 135 242 127 q 244 118 247 115 q 250 113 254 113 q 260 113 271 125 q 281 136 292 162 z"},".":{"x_min":0,"x_max":550,"ha":550,"o":"m 272 180 q 292 180 310 173 q 328 165 341 152 q 354 139 361 122 q 368 104 368 84 q 368 64 361 47 q 354 30 341 17 q 328 4 310 -4 q 292 -11 272 -11 q 252 -11 235 -4 q 218 4 206 17 q 193 30 186 47 q 178 64 178 84 q 178 104 186 122 q 193 139 206 152 q 218 165 235 173 q 252 180 272 180 z"},"p":{"x_min":0,"x_max":550,"ha":550,"o":"m 514 257 q 514 188 495 139 q 476 89 441 56 q 407 23 360 7 q 313 -9 258 -9 q 239 -9 221 -6 q 202 -4 187 0 l 187 -194 l 68 -194 l 68 496 l 171 496 l 174 423 q 189 442 205 458 q 222 473 241 484 q 260 495 282 501 q 304 507 331 507 q 375 507 409 489 q 443 472 467 439 q 490 407 502 361 q 514 314 514 257 z m 389 252 q 389 293 383 322 q 377 351 366 369 q 355 388 340 396 q 324 405 303 405 q 273 405 245 380 q 218 356 187 314 l 187 97 q 201 92 222 88 q 243 85 264 85 q 292 85 316 97 q 339 108 355 130 q 372 151 380 182 q 389 213 389 252 z"},"X":{"x_min":0,"x_max":550,"ha":550,"o":"m 393 0 l 270 235 l 149 0 l 4 0 l 188 327 l 16 638 l 157 638 l 273 416 l 385 638 l 526 638 l 355 327 l 546 0 z"},"*":{"x_min":0,"x_max":550,"ha":550,"o":"m 326 268 l 224 268 l 238 419 l 115 331 l 66 416 l 203 479 l 66 542 l 115 627 l 238 539 l 224 690 l 326 690 l 312 539 l 435 627 l 484 542 l 347 479 l 484 416 l 435 331 l 312 419 z"},"Y":{"x_min":0,"x_max":550,"ha":550,"o":"m 334 226 l 334 0 l 212 0 l 212 225 l 5 638 l 138 638 l 232 441 l 275 344 l 318 444 l 416 638 l 544 638 z"},"c":{"x_min":0,"x_max":550,"ha":550,"o":"m 469 19 q 434 5 396 -2 q 359 -9 318 -9 q 259 -9 212 7 q 165 23 132 55 q 100 87 82 134 q 65 181 65 242 q 65 302 84 350 q 103 398 137 433 q 171 467 219 485 q 267 504 326 504 q 375 504 407 499 q 440 494 467 486 l 467 370 q 437 385 401 394 q 366 402 334 402 q 301 402 274 391 q 248 379 230 359 q 212 339 202 311 q 193 282 193 248 q 193 212 203 184 q 213 156 232 136 q 251 116 277 106 q 304 95 336 95 q 352 95 369 97 q 386 100 404 104 q 421 108 438 113 q 455 119 469 125 z"},"!":{"x_min":0,"x_max":550,"ha":550,"o":"m 326 198 l 224 198 l 206 690 l 344 690 z m 275 141 q 291 141 304 135 q 318 129 329 119 q 339 109 345 95 q 351 81 351 65 q 351 49 345 35 q 339 21 329 11 q 318 0 304 -5 q 291 -11 275 -11 q 259 -11 245 -5 q 231 0 221 11 q 211 21 205 35 q 199 49 199 65 q 199 81 205 95 q 211 109 221 119 q 231 129 245 135 q 259 141 275 141 z"},"/":{"x_min":0,"x_max":550,"ha":550,"o":"m 151 -105 l 35 -105 l 376 690 l 492 690 z"},"[":{"x_min":0,"x_max":550,"ha":550,"o":"m 149 -194 l 149 712 l 406 712 l 406 619 l 259 619 l 259 -101 l 406 -101 l 406 -194 z"},"6":{"x_min":0,"x_max":550,"ha":550,"o":"m 512 202 q 512 154 495 115 q 477 75 446 47 q 415 19 372 4 q 329 -11 278 -11 q 166 -11 107 59 q 48 129 48 274 q 48 327 54 374 q 61 422 75 462 q 90 502 115 535 q 141 568 178 591 q 216 613 267 626 q 318 638 386 638 l 459 638 l 459 537 l 374 537 q 321 537 286 526 q 250 516 228 496 q 205 476 194 447 q 183 418 179 382 l 178 370 q 204 382 236 390 q 269 398 304 398 q 356 398 395 385 q 434 371 460 346 q 486 320 499 284 q 512 248 512 202 z m 388 197 q 388 219 382 238 q 376 257 364 270 q 352 284 332 291 q 313 299 286 299 q 271 299 255 296 q 240 293 225 289 q 211 285 198 279 q 185 274 175 268 q 175 219 182 185 q 188 151 202 129 q 216 108 237 98 q 258 89 285 89 q 309 89 328 97 q 347 104 360 119 q 374 133 381 153 q 388 173 388 197 z"},"r":{"x_min":0,"x_max":550,"ha":550,"o":"m 387 303 q 388 331 385 351 q 381 370 373 383 q 365 396 353 401 q 341 407 326 407 q 300 407 272 385 q 244 364 210 314 l 210 0 l 88 0 l 88 496 l 196 496 l 200 424 q 212 443 228 458 q 243 473 262 484 q 281 495 304 501 q 327 507 354 507 q 392 507 421 494 q 450 481 469 456 q 489 430 499 392 q 508 354 507 303 z"},"2":{"x_min":0,"x_max":550,"ha":550,"o":"m 63 0 l 63 88 l 214 239 q 256 281 282 312 q 308 343 322 367 q 335 391 340 412 q 344 432 344 454 q 344 472 338 489 q 333 505 321 517 q 310 529 293 536 q 276 543 254 543 q 216 543 184 527 q 152 510 123 483 l 60 564 q 102 603 154 626 q 206 649 266 649 q 313 649 351 637 q 389 625 416 602 q 443 578 458 543 q 473 508 473 462 q 473 424 463 391 q 453 358 433 327 q 414 295 385 264 q 356 233 320 198 l 227 110 l 496 110 l 496 0 z"},"{":{"x_min":0,"x_max":550,"ha":550,"o":"m 403 -194 q 302 -194 252 -145 q 202 -97 202 9 l 202 133 q 202 183 180 208 q 157 234 105 234 l 74 234 l 74 326 l 105 326 q 131 326 150 332 q 168 337 180 349 q 192 361 197 379 q 202 397 202 423 l 202 509 q 202 559 214 597 q 225 635 250 661 q 274 686 312 699 q 350 712 403 712 l 444 712 l 444 620 l 413 620 q 390 620 371 615 q 352 609 338 596 q 325 583 317 563 q 310 542 310 511 l 310 426 q 310 389 304 363 q 298 337 285 320 q 272 303 253 293 q 233 284 207 280 q 259 274 285 239 q 310 204 310 132 l 310 8 q 310 -24 317 -45 q 325 -66 338 -79 q 352 -91 371 -97 q 390 -102 413 -102 l 444 -102 l 444 -194 z"},"9":{"x_min":0,"x_max":550,"ha":550,"o":"m 499 357 q 499 282 486 226 q 474 170 450 130 q 427 91 395 65 q 363 40 323 25 q 284 11 240 5 q 195 0 147 0 l 73 0 l 73 102 l 160 102 q 217 102 256 112 q 294 122 318 141 q 341 161 353 189 q 364 218 368 256 l 369 268 q 343 256 310 248 q 277 240 243 240 q 197 240 159 251 q 121 262 93 285 q 65 309 50 346 q 35 383 35 436 q 35 484 52 523 q 70 562 101 590 q 132 618 175 634 q 217 649 268 649 q 318 649 360 635 q 402 621 433 587 q 464 553 482 497 q 499 440 499 357 z m 262 549 q 239 549 220 541 q 201 533 187 519 q 174 505 167 485 q 159 465 159 441 q 159 389 187 364 q 214 339 262 339 q 275 339 290 341 q 305 344 320 348 q 335 353 348 358 q 362 364 372 370 q 372 414 366 447 q 361 480 348 503 q 335 525 314 537 q 293 549 262 549 z"}," ":{"x_min":0,"x_max":550,"ha":550,"o":""},"I":{"x_min":0,"x_max":550,"ha":550,"o":"m 73 540 l 73 638 l 477 638 l 477 540 l 336 540 l 336 99 l 477 99 l 477 0 l 73 0 l 73 99 l 214 99 l 214 540 z"},"H":{"x_min":0,"x_max":550,"ha":550,"o":"m 383 0 l 383 278 l 167 278 l 167 0 l 46 0 l 46 638 l 167 638 l 167 382 l 383 382 l 383 638 l 503 638 l 503 0 z"},"4":{"x_min":0,"x_max":550,"ha":550,"o":"m 432 130 l 432 0 l 316 0 l 316 130 l 19 130 l 19 232 l 268 638 l 432 638 l 432 235 l 529 235 l 529 130 z m 317 523 l 136 235 l 317 235 z"},"~":{"x_min":0,"x_max":550,"ha":550,"o":"m 527 346 q 527 308 519 274 q 511 239 494 213 q 476 187 448 172 q 419 157 378 157 q 351 157 328 166 q 306 175 288 188 q 270 202 254 218 q 239 233 225 247 q 210 260 197 269 q 183 278 168 278 q 146 278 135 259 q 123 240 123 192 l 23 192 q 23 230 31 264 q 39 299 56 325 q 74 351 102 366 q 131 381 172 381 q 199 381 221 372 q 244 363 262 349 q 280 336 296 320 q 311 305 325 291 q 339 278 353 269 q 367 260 382 260 q 404 260 415 279 q 427 298 427 346 z"},"D":{"x_min":0,"x_max":550,"ha":550,"o":"m 524 327 q 524 253 506 192 q 487 132 448 89 q 410 46 349 23 q 289 0 204 0 l 42 0 l 42 638 l 231 638 q 304 638 359 620 q 414 602 451 563 q 487 525 506 467 q 524 408 524 327 z m 395 319 q 395 371 387 412 q 378 452 359 480 q 339 508 306 523 q 272 538 223 538 l 162 538 l 162 101 l 215 101 q 303 101 349 153 q 395 206 395 319 z"},"^":{"x_min":0,"x_max":550,"ha":550,"o":"m 397 326 l 270 552 l 144 326 l 42 326 l 227 638 l 317 638 l 508 326 z"},"0":{"x_min":0,"x_max":550,"ha":550,"o":"m 524 322 q 524 243 507 181 q 490 119 457 76 q 424 34 376 11 q 329 -11 268 -11 q 215 -11 171 7 q 126 26 94 66 q 62 105 44 167 q 26 229 26 316 q 26 395 43 457 q 61 519 93 561 q 126 604 174 626 q 222 649 282 649 q 335 649 379 630 q 424 612 456 572 q 488 533 506 471 q 524 409 524 322 z m 146 320 q 146 310 146 302 q 146 293 147 284 l 386 457 q 369 505 341 529 q 313 552 275 552 q 248 552 224 538 q 201 524 183 495 q 166 466 156 423 q 146 379 146 320 z m 404 318 q 404 326 403 335 q 403 343 403 351 l 165 179 q 181 132 209 109 q 237 86 275 86 q 302 86 326 100 q 350 114 367 143 q 384 171 394 215 q 404 259 404 318 z"},"F":{"x_min":0,"x_max":550,"ha":550,"o":"m 212 537 l 212 360 l 453 360 l 453 261 l 212 261 l 212 0 l 90 0 l 90 638 l 467 638 l 467 537 z"},"`":{"x_min":0,"x_max":550,"ha":550,"o":"m 206 690 l 334 562 l 215 562 l 45 690 z m 0 496 z"},"k":{"x_min":0,"x_max":550,"ha":550,"o":"m 375 0 l 192 248 l 192 0 l 73 0 l 73 690 l 192 690 l 192 286 l 365 496 l 514 496 l 313 270 l 531 0 z"},"u":{"x_min":0,"x_max":550,"ha":550,"o":"m 186 496 l 186 173 q 186 132 201 112 q 216 91 247 91 q 277 91 304 115 q 332 140 363 182 l 363 496 l 482 496 l 482 0 l 379 0 l 376 73 q 360 54 344 39 q 328 23 309 12 q 291 1 268 -5 q 246 -11 219 -11 q 181 -11 153 1 q 124 14 105 37 q 86 60 76 92 q 67 124 67 163 l 67 496 z"},"]":{"x_min":0,"x_max":550,"ha":550,"o":"m 129 -194 l 129 -101 l 275 -101 l 275 619 l 129 619 l 129 712 l 385 712 l 385 -194 z"},"U":{"x_min":0,"x_max":550,"ha":550,"o":"m 507 235 q 507 174 491 128 q 475 82 444 51 q 414 20 370 4 q 326 -11 271 -11 q 209 -11 166 4 q 122 20 94 49 q 67 79 55 121 q 42 163 42 215 l 42 638 l 163 638 l 163 222 q 163 190 168 165 q 174 140 188 123 q 202 105 223 97 q 244 88 275 88 q 305 88 326 95 q 346 103 360 120 q 374 137 380 163 q 387 189 387 227 l 387 638 l 507 638 z"},"o":{"x_min":0,"x_max":550,"ha":550,"o":"m 515 252 q 515 193 498 145 q 481 96 450 62 q 419 27 374 8 q 328 -11 270 -11 q 215 -11 171 5 q 128 21 98 53 q 67 85 51 133 q 35 181 35 245 q 35 304 52 353 q 69 401 100 435 q 132 469 177 488 q 223 507 280 507 q 335 507 379 490 q 422 474 453 442 q 483 410 499 362 q 515 314 515 252 z m 391 249 q 391 326 362 365 q 333 404 276 404 q 245 404 223 392 q 201 379 187 358 q 172 337 166 309 q 159 280 159 248 q 159 170 190 131 q 222 92 276 92 q 306 92 328 104 q 350 116 363 137 q 377 158 384 187 q 391 216 391 249 z"},"N":{"x_min":0,"x_max":550,"ha":550,"o":"m 361 0 l 190 381 l 155 463 l 155 198 l 155 0 l 46 0 l 46 638 l 193 638 l 368 255 l 398 180 l 398 462 l 398 638 l 508 638 l 508 0 z"},"+":{"x_min":0,"x_max":550,"ha":550,"o":"m 330 217 l 330 27 l 220 27 l 220 217 l 38 217 l 38 315 l 220 315 l 220 504 l 330 504 l 330 315 l 512 315 l 512 217 z"},"G":{"x_min":0,"x_max":550,"ha":550,"o":"m 278 270 l 278 369 l 505 369 l 505 29 q 461 8 413 -1 q 365 -11 309 -11 q 243 -11 190 9 q 137 30 100 70 q 62 111 43 171 q 23 231 23 310 q 23 390 44 453 q 64 516 104 559 q 144 603 202 626 q 260 649 334 649 q 378 649 420 641 q 461 634 503 621 l 503 502 q 467 520 423 531 q 379 542 335 542 q 290 542 256 526 q 221 510 198 481 q 175 453 163 411 q 151 369 151 316 q 151 265 160 224 q 169 184 190 155 q 211 126 244 111 q 276 96 323 96 q 334 96 343 97 q 351 98 358 99 q 366 101 372 103 q 379 104 386 107 l 386 270 z"},"q":{"x_min":0,"x_max":550,"ha":550,"o":"m 364 -194 l 364 -31 l 369 66 q 355 49 340 35 q 325 21 306 10 q 288 0 267 -6 q 245 -11 220 -11 q 176 -11 142 6 q 108 24 85 56 q 62 89 49 135 q 37 182 37 239 q 37 298 53 347 q 69 396 101 431 q 133 466 181 486 q 229 505 293 505 q 305 505 320 503 q 334 502 349 500 q 364 498 377 494 q 391 491 401 488 l 483 506 l 483 -194 z m 162 244 q 162 203 168 174 q 173 145 184 126 q 195 108 211 99 q 228 91 248 91 q 278 91 306 115 q 333 140 364 182 l 364 399 q 350 404 329 408 q 308 411 287 411 q 258 411 235 399 q 212 388 196 366 q 180 345 171 314 q 162 283 162 244 z"},"d":{"x_min":0,"x_max":550,"ha":550,"o":"m 380 0 l 377 73 q 361 54 345 39 q 328 23 309 12 q 290 1 268 -5 q 247 -11 220 -11 q 176 -11 142 6 q 108 24 85 56 q 62 89 49 135 q 37 182 37 239 q 37 307 56 357 q 76 407 110 440 q 144 473 191 489 q 238 505 293 505 q 312 505 330 502 q 349 500 364 496 l 364 690 l 483 690 l 483 0 z m 162 244 q 162 203 168 174 q 173 145 184 126 q 195 108 211 99 q 228 91 248 91 q 278 91 306 115 q 333 140 364 182 l 364 399 q 350 404 329 408 q 308 411 287 411 q 258 411 235 399 q 212 388 196 366 q 180 345 171 314 q 162 283 162 244 z"},"1":{"x_min":0,"x_max":550,"ha":550,"o":"m 74 0 l 74 106 l 237 106 l 237 516 l 95 438 l 56 535 l 259 642 l 359 642 l 359 106 l 499 106 l 499 0 z"},"5":{"x_min":0,"x_max":550,"ha":550,"o":"m 491 204 q 491 153 470 113 q 448 73 410 46 q 372 19 320 4 q 269 -10 208 -10 q 193 -10 176 -9 q 159 -8 141 -6 q 124 -5 107 -3 q 90 0 76 2 l 76 106 q 104 99 140 95 q 176 91 214 91 q 287 91 325 119 q 364 147 364 197 q 364 249 328 274 q 292 299 213 299 l 88 299 l 88 638 l 456 638 l 456 526 l 199 526 l 199 396 l 245 396 q 294 396 338 387 q 383 378 417 357 q 451 335 471 298 q 491 261 491 204 z"}}}
